<?xml version="1.0" encoding="UTF-8"?>
<!-- Generated by Pixelmator Pro 3.3.2 -->
<svg width="1080" height="1080" viewBox="0 0 1080 1080" xmlns="http://www.w3.org/2000/svg" xmlns:xlink="http://www.w3.org/1999/xlink">
    <path id="Ellipse" fill="#ff6900" fill-rule="evenodd" stroke="none" d="M 1080 540.507813 C 1080 241.993591 837.934692 0 539.332031 0 C 240.729355 0 -1.335938 241.993591 -1.335938 540.507813 C -1.335938 839.022034 240.729355 1081.015625 539.332031 1081.015625 C 837.934692 1081.015625 1080 839.022034 1080 540.507813 Z"/>
    <g id="discordsocial">
        <path id="Path" fill="#ffffff" stroke="none" d="M 838.35791 261.727356 C 782.715393 235.693604 723.219849 216.773376 661.018799 206 C 653.379761 219.811096 644.455139 238.387268 638.302002 253.164551 C 572.180725 243.220642 506.66745 243.220642 441.762207 253.164551 C 435.610199 238.387268 426.482941 219.811096 418.775574 206 C 356.507385 216.773376 296.943451 235.763123 241.300934 261.865173 C 129.069504 431.461609 98.645416 596.84552 113.857491 759.881042 C 188.295273 815.46936 260.434479 849.23761 331.356201 871.334534 C 348.867188 847.234436 364.484619 821.615479 377.938629 794.615479 C 352.314941 784.879028 327.772949 772.86377 304.583649 758.914856 C 310.735657 754.357117 316.753326 749.59198 322.567139 744.689026 C 464.00528 810.843262 617.681458 810.843262 757.429871 744.689026 C 763.312012 749.59198 769.328552 754.357117 775.41333 758.914856 C 752.155762 772.932129 727.54657 784.947388 701.922852 794.685059 C 715.376892 821.615479 730.927185 847.303955 748.50531 871.402893 C 819.495361 849.305969 891.701538 815.538879 966.139282 759.881042 C 983.988525 570.881287 935.648071 407.016235 838.35791 261.727356 Z M 397.207672 659.615723 C 354.749329 659.615723 319.930054 619.978271 319.930054 571.709656 C 319.930054 523.44104 354.005829 483.735291 397.207672 483.735291 C 440.410675 483.735291 475.22876 523.371582 474.485229 571.709656 C 474.552399 619.978271 440.410675 659.615723 397.207672 659.615723 Z M 682.789368 659.615723 C 640.331055 659.615723 605.51178 619.978271 605.51178 571.709656 C 605.51178 523.44104 639.586365 483.735291 682.789368 483.735291 C 725.991211 483.735291 760.810486 523.371582 760.066956 571.709656 C 760.066956 619.978271 725.991211 659.615723 682.789368 659.615723 Z"/>
    </g>
</svg>
