<?xml version="1.0" encoding="UTF-8"?>
<!-- Generated by Pixelmator Pro 3.3.2 -->
<svg width="1080" height="1080" viewBox="0 0 1080 1080" xmlns="http://www.w3.org/2000/svg" xmlns:xlink="http://www.w3.org/1999/xlink">
    <g id="facebooksocial">
        <path id="Path" fill="#ff6900" stroke="none" d="M 1080 539.992432 C 1080 241.809326 838.27478 0.083984 540.091553 0.083984 C 258.128387 -0.176392 23.44525 216.579285 1.345438 497.67511 C -20.754375 778.770996 177.172012 1029.538452 455.711609 1073.344849 L 455.711609 696.026001 L 318.729095 696.026001 L 318.729095 539.992432 L 455.788727 539.992432 L 455.788727 421.05835 C 455.788727 285.772705 536.389343 210.956848 659.719849 210.956848 C 718.801331 210.956848 780.582214 221.52356 780.582214 221.52356 L 780.582214 354.418213 L 712.476563 354.418213 C 645.373718 354.418213 624.548645 396.068237 624.548645 438.721008 L 624.548645 539.992432 L 774.257568 539.992432 L 750.34729 696.026001 L 624.471497 696.026001 L 624.471497 1073.344849 C 886.827942 1031.799438 1080.006226 805.618042 1080 539.992432 Z"/>
        <path id="path1" fill="#ffffff" stroke="none" d="M 750.270203 696.026001 L 774.18042 539.992432 L 624.471497 539.992432 L 624.471497 438.721008 C 624.471497 396.068237 645.29657 354.418213 712.399475 354.418213 L 780.505005 354.418213 L 780.505005 221.446472 C 780.505005 221.446472 718.724121 210.879761 659.6427 210.879761 C 536.235046 210.879761 455.711609 285.695618 455.711609 420.981201 L 455.711609 539.992432 L 318.729095 539.992432 L 318.729095 696.026001 L 455.788727 696.026001 L 455.788727 1073.344849 C 511.697968 1082.143677 568.639404 1082.143677 624.548645 1073.344849 L 624.548645 696.026001 L 750.270203 696.026001 Z"/>
    </g>
</svg>
