<?xml version="1.0" encoding="UTF-8"?>
<!-- Generated by Pixelmator Pro 3.3.2 -->
<svg width="1080" height="1080" viewBox="0 0 1080 1080" xmlns="http://www.w3.org/2000/svg" xmlns:xlink="http://www.w3.org/1999/xlink">
    <path id="Ellipse" fill="#ffffff" fill-rule="evenodd" stroke="none" d="M 1044 569 C 1044 268.004822 819.918518 24 543.5 24 C 267.081482 24 43 268.004822 43 569 C 43 869.995178 267.081482 1114 543.5 1114 C 819.918518 1114 1044 869.995178 1044 569 Z"/>
    <path id="Path" fill="#ff6900" stroke="none" d="M 456.680206 789.410767 C 317.46051 771.988647 219.374451 668.548706 219.374451 534.620972 C 219.374451 480.179504 238.359314 421.381714 270 382.183533 C 256.28952 346.25177 258.398834 270.03302 274.218597 238.456543 C 316.405823 233.012512 373.359283 255.877502 407.109283 287.453979 C 447.187195 274.388306 489.374451 267.855469 541.054626 267.855469 C 592.734863 267.855469 634.922058 274.388306 672.890686 286.365173 C 705.585999 255.877502 763.594177 233.012512 805.781433 238.456543 C 820.54657 267.855469 822.655823 344.074219 808.945313 381.094727 C 842.695313 422.47052 860.62439 478.001892 860.62439 534.620972 C 860.62439 668.548706 762.53949 769.811096 621.210449 788.321899 C 657.069824 812.275635 681.327942 864.540588 681.327942 924.427246 L 681.327942 1037.666504 C 681.327942 1070.331909 707.695313 1088.841553 739.335999 1075.775879 C 930.234863 1000.645996 1080 803.565186 1080 559.664612 C 1080 251.522217 837.422058 0 538.945374 0 C 240.468613 0 2e-06 251.522217 -0 559.664612 C -2e-06 801.387573 148.710495 1001.734741 349.101196 1076.864624 C 377.577911 1087.752686 405 1068.154297 405 1038.755249 L 405 951.6474 C 390.234833 958.181396 371.25 962.536621 354.374451 962.536621 C 284.765137 962.536621 243.632584 923.338501 214.101181 850.38501 C 202.5 820.987305 189.844177 803.565186 165.586044 800.298767 C 152.930206 799.209961 148.710495 793.765991 148.710495 787.233093 C 148.710495 774.16626 169.804657 764.367065 190.898819 764.367065 C 221.484863 764.367065 247.851181 783.966736 275.273285 824.253723 C 296.367432 855.8302 318.515137 869.984619 344.882599 869.984619 C 371.25 869.984619 388.124451 860.185425 412.382568 835.141724 C 430.312805 816.630859 444.023285 800.298767 456.680206 789.410767 Z"/>
</svg>
