<?xml version="1.0" encoding="UTF-8"?>
<!-- Generated by Pixelmator Pro 3.3.2 -->
<svg width="1080" height="1080" viewBox="0 0 1080 1080" xmlns="http://www.w3.org/2000/svg" xmlns:xlink="http://www.w3.org/1999/xlink">
    <path id="Ellipse" fill="#ff6900" fill-rule="evenodd" stroke="none" d="M 1080 540 C 1080 241.766235 838.233765 0 540 0 C 241.766235 0 0 241.766235 0 540 C 0 838.233765 241.766235 1080 540 1080 C 838.233765 1080 1080 838.233765 1080 540 Z"/>
    <path id="Path" fill="#ffffff" stroke="none" d="M 416.790161 541.704773 C 416.790161 472.726074 472.318604 416.793152 540.835144 416.793152 C 609.351746 416.793152 664.909973 472.726074 664.909973 541.704773 C 664.909973 610.683411 609.351746 666.616333 540.835144 666.616333 C 472.318604 666.616333 416.790161 610.683411 416.790161 541.704773 M 349.717712 541.704773 C 349.717712 647.971069 435.280762 734.111084 540.835144 734.111084 C 646.389526 734.111084 731.952637 647.971069 731.952637 541.704773 C 731.952637 435.438477 646.389526 349.29834 540.835144 349.29834 C 435.280762 349.29834 349.720703 435.432495 349.720703 541.704773 M 694.858215 341.669373 C 694.848328 366.502625 714.836853 386.641907 739.503723 386.651917 C 764.170593 386.661865 784.175049 366.538574 784.184937 341.705322 C 784.194763 316.87207 764.20636 296.732727 739.539429 296.722778 L 739.521545 296.722778 C 714.866394 296.734314 694.879517 316.8479 694.858215 341.669373 M 390.468536 846.708435 C 354.181061 845.044739 334.457733 838.959534 321.350525 833.818604 C 303.973511 827.007996 291.574951 818.896362 278.539215 805.790649 C 265.503479 792.685059 257.434296 780.214844 250.699066 762.720642 C 245.589584 749.531006 239.54512 729.668701 237.895569 693.136475 C 236.091171 653.639526 235.730865 641.774902 235.730865 541.710754 C 235.730865 441.646545 236.120941 429.81488 237.895569 390.285034 C 239.548111 353.752808 245.637207 333.929504 250.699066 320.700867 C 257.46405 303.206726 265.521332 290.724548 278.539215 277.600769 C 291.557098 264.477112 303.943726 256.353577 321.350525 249.572937 C 334.451782 244.428955 354.181061 238.34375 390.468536 236.683044 C 429.700836 234.866516 441.485992 234.503784 540.835144 234.503784 C 640.184326 234.503784 651.981384 234.890442 691.24646 236.689026 C 727.533936 238.352722 747.224487 244.48291 760.36438 249.578918 C 777.741455 256.359558 790.140015 264.50116 803.175781 277.606812 C 816.211487 290.712524 824.250916 303.212646 831.01593 320.706848 C 836.125427 333.896484 842.169922 353.75885 843.819397 390.291016 C 845.623779 429.820923 845.984131 441.652588 845.984131 541.716797 C 845.984131 641.780884 845.623779 653.61261 843.819397 693.142456 C 842.166931 729.674683 836.092651 749.531006 831.01593 762.726624 C 824.250916 780.220825 816.193604 792.703003 803.175781 805.796692 C 790.157898 818.890381 777.741455 827.013977 760.36438 833.824585 C 747.263184 838.968506 727.533936 845.053772 691.24646 846.714478 C 652.01416 848.531067 640.229004 848.893738 540.835144 848.893738 C 441.441345 848.893738 429.688904 848.531067 390.468536 846.714478 M 387.38678 169.269226 C 347.764465 171.085754 320.689514 177.410706 297.044739 186.673462 C 272.572205 196.238953 251.827545 209.071777 231.112671 229.893433 C 210.397827 250.715027 197.68367 271.602539 188.182281 296.270142 C 178.981613 320.089355 172.69899 347.331848 170.894592 387.221436 C 169.06041 427.17395 168.640579 439.94696 168.640579 541.704773 C 168.640579 643.462524 169.06041 656.235535 170.894592 696.18811 C 172.69899 736.080566 178.981613 763.32019 188.182281 787.139404 C 197.68367 811.776978 210.400787 832.703491 231.112671 853.516113 C 251.82457 874.328674 272.542419 887.143555 297.044739 896.736023 C 320.734161 905.998779 347.764465 912.32373 387.38678 914.14032 C 427.092499 915.956909 439.759033 916.409546 540.835144 916.409546 C 641.911316 916.409546 654.598633 915.986938 694.283569 914.14032 C 733.908936 912.32373 760.965881 905.998779 784.62561 896.736023 C 809.098145 887.143555 829.842834 874.337646 850.557678 853.516113 C 871.272522 832.694519 883.959839 811.776978 893.488037 787.139404 C 902.688721 763.32019 909.00116 736.077637 910.775818 696.18811 C 912.5802 656.205566 913 643.462524 913 541.704773 C 913 439.94696 912.5802 427.17395 910.775818 387.221436 C 908.971375 347.328857 902.688721 320.074341 893.488037 296.270142 C 883.959839 271.632507 871.239807 250.747986 850.557678 229.893433 C 829.875549 209.038879 809.098145 196.238953 784.655396 186.673462 C 760.965881 177.410706 733.905945 171.055786 694.313354 169.269226 C 654.622498 167.443604 641.941101 167 540.879822 167 C 439.818542 167 427.107391 167.422607 387.401672 169.269226"/>
</svg>
