<?xml version="1.0" encoding="UTF-8"?>
<!-- Generated by Pixelmator Pro 3.3.2 -->
<svg width="1080" height="1080" viewBox="0 0 1080 1080" xmlns="http://www.w3.org/2000/svg" xmlns:xlink="http://www.w3.org/1999/xlink">
    <path id="Path" fill="#ffffff" fill-rule="evenodd" stroke="none" d="M 1007.587219 538.582703 C 1007.587219 279.67511 797.701172 69.789063 538.793579 69.789063 C 279.886047 69.789063 70 279.67511 70 538.582703 C 70 797.490234 279.886047 1007.376282 538.793579 1007.376282 C 797.701172 1007.376282 1007.587219 797.490234 1007.587219 538.582703 Z"/>
    <path id="Shape" fill="#ff6900" stroke="none" d="M 540 0 C 243 0 0 243 0 540 C 0 837 243 1080 540 1080 C 837 1080 1080 837 1080 540 C 1080 243 837 0 540 0 Z M 804.599976 329.400024 L 712.799988 772.199951 C 707.400024 804.599976 685.799988 810 664.200012 793.800049 L 523.799988 685.799988 C 491.400024 718.200012 459 745.200012 453.599976 756 C 442.799988 761.400024 437.400024 772.199951 426.599976 772.199951 C 410.400024 772.199951 410.400024 761.400024 405 750.599976 L 356.400024 588.599976 L 210.600006 540 C 178.200012 529.200012 178.200012 507.599976 216 491.400024 L 766.800049 280.800049 C 788.400024 275.400024 815.400024 286.199951 804.599976 329.400024 Z M 675 378 L 367.200012 572.400024 L 415.799988 734.400024 L 426.599976 626.400024 L 691.200012 388.799988 C 707.400024 372.599976 696.599976 372.599976 675 378 Z"/>
</svg>
