<?xml version="1.0" encoding="UTF-8"?>
<!-- Generated by Pixelmator Pro 3.3.2 -->
<svg width="1080" height="1080" viewBox="0 0 1080 1080" xmlns="http://www.w3.org/2000/svg" xmlns:xlink="http://www.w3.org/1999/xlink">
    <path id="Path" fill="#ff6900" fill-rule="evenodd" stroke="none" d="M 1080 540 C 1080 241.766235 838.233765 0 540 0 C 241.766235 0 0 241.766235 0 540 C 0 838.233765 241.766235 1080 540 1080 C 838.233765 1080 1080 838.233765 1080 540 Z"/>
    <path id="path1" fill="#ffffff" stroke="none" d="M 704.655762 514.864502 C 701.70105 513.447815 698.685608 512.071655 695.6297 510.776428 C 690.327332 412.905823 636.858704 356.867004 547.062988 356.300232 C 495.253937 355.956238 448.868591 377.084656 419.968842 420.940186 L 469.349365 454.818542 C 489.8909 423.652161 522.129883 417.014038 545.868958 417.014038 L 546.678467 417.014038 C 576.246155 417.196228 598.568604 425.797363 612.99823 442.554382 C 623.501709 454.778076 630.544495 471.636292 634.025391 492.926575 C 607.797058 488.474182 579.463989 487.098022 549.147522 488.838501 C 463.783936 493.756287 408.898682 543.541626 412.58197 612.714844 C 414.443878 647.827698 431.929443 678.002441 461.800629 697.734436 C 487.057556 714.410522 519.600159 722.566406 553.397522 720.704468 C 598.062622 718.27594 633.074219 701.235596 657.521667 670.089417 C 676.079834 646.431274 687.817871 615.770813 692.998779 577.156799 C 714.268799 589.987671 730.03418 606.886353 738.756714 627.2052 C 753.550598 661.73114 754.420898 718.478333 708.116516 764.742188 C 667.559692 805.278809 618.786255 822.80481 545.099915 823.351318 C 463.338715 822.744141 401.511841 796.515747 361.319305 745.415039 C 323.676758 697.57251 304.228088 628.459961 303.499542 540 C 304.228088 451.539978 323.676758 382.42749 361.319305 334.585022 C 401.511841 283.484192 463.338715 257.255859 545.099915 256.648682 C 627.427856 257.255859 690.327332 283.605652 732.078186 334.94928 C 752.538757 360.125244 767.960083 391.797668 778.139771 428.711609 L 836 413.270081 C 823.67511 367.835876 804.287109 328.675537 777.876648 296.193665 C 724.367554 230.35968 646.127686 196.64325 545.302307 195.934937 L 544.897583 195.934937 C 444.274567 196.64325 366.884735 230.501343 314.913727 296.578186 C 268.649811 355.369385 244.789291 437.191345 244.000015 539.757141 L 244.000015 540.242859 C 244.789291 642.808655 268.649811 724.630676 314.913727 783.421875 C 366.884735 849.498657 444.274567 883.377014 544.897583 884.065063 L 545.302307 884.065063 C 634.754028 883.437744 697.81543 860.0224 749.766113 808.112183 C 817.725159 740.213867 815.681091 655.113403 793.27771 602.859009 C 777.208801 565.39856 746.568604 534.960754 704.655762 514.864502 Z M 550.199951 660.091919 C 512.800232 662.196655 473.923157 645.399109 472.000549 609.43634 C 470.583893 582.762756 490.983734 552.992798 552.507019 549.451111 C 559.549866 549.046387 566.471191 548.843994 573.250916 548.843994 C 595.593567 548.843994 616.499329 551.00946 635.502808 555.178467 C 628.419495 643.699097 586.850769 658.068115 550.199951 660.091919 Z"/>
</svg>
