<?xml version="1.0" encoding="UTF-8"?>
<!-- Generated by Pixelmator Pro 3.3.2 -->
<svg width="1080" height="1080" viewBox="0 0 1080 1080" xmlns="http://www.w3.org/2000/svg" xmlns:xlink="http://www.w3.org/1999/xlink">
    <path id="Path" fill="#ff6900" fill-rule="evenodd" stroke="none" d="M 1080 540 C 1080 241.766235 838.233765 0 540 0 C 241.766235 0 0 241.766235 0 540 C 0 838.233765 241.766235 1080 540 1080 C 838.233765 1080 1080 838.233765 1080 540 Z"/>
    <path id="tiktok-svgrepo-com" fill="#ffffff" stroke="none" d="M 556.666687 140.666687 C 600.333374 140 643.666687 140.333313 687 140 C 689.666687 191 708 243 745.333374 279 C 782.666626 316 835.333313 333 886.666687 338.666687 L 886.666687 473 C 838.666687 471.333313 790.333374 461.333313 746.666626 440.666687 C 727.666687 432 710 421 692.666687 409.666687 C 692.333374 507 693 604.333374 692 701.333374 C 689.333313 748 674 794.333313 647 832.666687 C 603.333374 896.666687 527.666687 938.333374 450 939.666626 C 402.333344 942.333313 354.666656 929.333374 314 905.333313 C 246.666672 865.666687 199.333328 793 192.333344 715 C 191.666672 698.333313 191.333344 681.666626 192 665.333374 C 198 602 229.333344 541.333313 278 500 C 333.333344 452 410.666656 429 483 442.666626 C 483.666687 492 481.666656 541.333313 481.666656 590.666687 C 448.666656 580 410 583 381.000031 603 C 360 616.666687 344 637.666687 335.666687 661.333374 C 328.666687 678.333313 330.666687 697 331 715 C 339 769.666626 391.666687 815.666687 447.666687 810.666687 C 485 810.333374 520.666687 788.666626 540 757 C 546.333374 746 553.333374 734.666626 553.666687 721.666687 C 557 662 555.666687 602.666626 556 543 C 556.333374 408.666687 555.666687 274.666687 556.666687 140.666687 Z"/>
</svg>
