<?xml version="1.0" encoding="UTF-8"?>
<!-- Generated by Pixelmator Pro 3.3.2 -->
<svg width="1080" height="1080" viewBox="0 0 1080 1080" xmlns="http://www.w3.org/2000/svg" xmlns:xlink="http://www.w3.org/1999/xlink">
    <path id="Path" fill="#ff6900" fill-rule="evenodd" stroke="none" d="M 1080 540 C 1080 241.766235 838.233765 0 540 0 C 241.766235 0 0 241.766235 0 540 C 0 838.233765 241.766235 1080 540 1080 C 838.233765 1080 1080 838.233765 1080 540 Z"/>
    <path id="path1" fill="#ffffff" fill-rule="evenodd" stroke="none" d="M 788.1604 290.288147 C 722.883911 224.533142 633.978699 187.68042 541.325378 187.970886 C 349.164001 187.970886 192.594803 344.459717 192.594803 536.84198 C 192.540039 598.054565 208.612442 658.201416 239.19397 711.227295 L 189.682343 892 L 374.632843 843.452515 C 425.778107 871.333008 483.094666 885.952148 541.345398 885.974243 L 541.486023 885.974243 C 733.767944 885.974243 890.357178 729.485352 890.357178 537.103088 C 890.568054 444.500854 853.750549 355.657227 788.100098 290.34845 L 788.100098 290.34845 Z M 541.425781 827.243225 C 489.464142 827.252197 438.457397 813.279419 393.754608 786.790283 L 383.129181 780.463257 L 273.380096 809.165955 L 302.685364 702.168701 L 295.81601 691.181702 C 266.678894 645.008545 251.276306 591.5 251.406174 536.902283 C 251.406174 376.938538 381.502258 246.762146 541.586426 246.762146 C 618.519592 246.772705 692.294006 277.361023 746.663818 331.791077 C 801.033569 386.22113 831.5401 460.029419 831.465454 536.962463 C 831.324829 696.98645 701.248901 827.122742 541.405701 827.122742 L 541.405701 827.122742 Z M 700.405273 609.914307 C 691.72821 605.495483 648.824829 584.465576 640.850769 581.553101 C 632.876648 578.640625 627.091919 577.154297 621.166626 585.971985 C 615.241272 594.789673 598.63031 614.31311 593.528503 620.11792 C 588.426636 625.922729 583.365051 626.726196 574.708069 622.307251 C 566.051086 617.888367 537.850525 608.709229 504.568237 579.002197 C 478.697693 555.903442 461.16272 527.301147 456.060913 518.744629 C 450.959106 510.188049 455.478424 505.267029 459.917389 501.00885 C 463.93457 497.132263 468.594513 490.845459 472.993286 485.74353 C 477.39209 480.641785 478.778015 477.066528 481.67038 471.161255 C 484.562744 465.256042 483.156738 460.274719 480.967346 455.895996 C 478.778015 451.517273 461.283264 408.593872 454.172852 391.119141 C 447.162872 374.026062 439.871735 376.41626 434.50882 376.11499 C 429.145874 375.813721 423.622284 375.853943 417.857605 375.853943 C 408.938629 376.093079 400.520477 380.029297 394.618317 386.720337 C 386.583954 395.3974 364.087799 416.567871 364.087799 459.471252 C 364.087799 502.374695 395.301208 543.831848 399.679901 549.676819 C 404.058655 555.521851 461.16272 643.598267 548.596436 681.319519 C 569.365234 690.237671 585.594543 695.600586 598.248657 699.758301 C 616.031189 705.116211 634.811401 706.291687 653.123169 703.192993 C 669.894897 700.722473 704.703674 682.122925 711.994873 661.776001 C 719.28595 641.429016 719.28595 623.954346 717.11676 620.358948 C 714.947449 616.76355 709.263184 614.333252 700.465515 609.874146 L 700.465515 609.874146 Z"/>
</svg>
