<?xml version="1.0" encoding="UTF-8"?>
<!-- Generated by Pixelmator Pro 3.3.2 -->
<svg width="1080" height="1080" viewBox="0 0 1080 1080" xmlns="http://www.w3.org/2000/svg" xmlns:xlink="http://www.w3.org/1999/xlink">
    <path id="Path" fill="#ff6900" fill-rule="evenodd" stroke="none" d="M 1080 540 C 1080 241.766235 838.233765 0 540 0 C 241.766235 0 0 241.766235 0 540 C 0 838.233765 241.766235 1080 540 1080 C 838.233765 1080 1080 838.233765 1080 540 Z"/>
    <path id="xsocial" fill="#ffffff" stroke="none" d="M 597.652344 492.765015 L 823.249451 230.52655 L 769.790161 230.52655 L 573.904175 458.224487 L 417.450653 230.52655 L 237 230.52655 L 473.58847 574.846191 L 237 849.843384 L 290.462341 849.843384 L 497.322968 609.386658 L 662.549377 849.843384 L 843 849.843384 L 597.639221 492.765015 L 597.652344 492.765015 Z M 524.428284 577.879761 L 500.457001 543.593262 L 309.725555 270.772217 L 391.840576 270.772217 L 545.763062 490.94751 L 569.734375 525.233948 L 769.815369 811.428101 L 687.700378 811.428101 L 524.428284 577.892822 L 524.428284 577.879761 Z"/>
</svg>
