<?xml version="1.0" encoding="UTF-8"?>
<!-- Generated by Pixelmator Pro 3.3.2 -->
<svg width="1080" height="1080" viewBox="0 0 1080 1080" xmlns="http://www.w3.org/2000/svg" xmlns:xlink="http://www.w3.org/1999/xlink">
    <g id="youtubesocial">
        <path id="Path" fill="#ff6900" fill-rule="evenodd" stroke="none" d="M 540 1080 L 540 1080 C 838.233765 1080 1080 838.233765 1080 540 L 1080 540 C 1080 241.766235 838.233765 0 540 0 L 540 0 C 241.76622 0 -0 241.766235 0 540 L 0 540 C 0 838.233765 241.76622 1080 540 1080 Z"/>
        <path id="path1" fill="#ffffff" fill-rule="evenodd" stroke="none" d="M 465.660034 634.048706 L 465.637482 430.316101 L 660.172546 532.53363 L 465.660034 634.048706 Z M 892.799988 395.012451 C 892.799988 395.012451 885.757446 345.048035 864.179932 323.045532 C 836.797485 294.15448 806.107544 294.018555 792.045044 292.341736 C 691.289978 284.999939 540.157532 284.999939 540.157532 284.999939 L 539.842468 284.999939 C 539.842468 284.999939 388.709991 284.999939 287.955017 292.341736 C 273.869995 294.018555 243.202499 294.15448 215.797516 323.045532 C 194.220001 345.048035 187.199982 395.012451 187.199982 395.012451 C 187.199982 395.012451 180 453.700867 180 512.366577 L 180 567.384155 C 180 626.07251 187.199982 684.738281 187.199982 684.738281 C 187.199982 684.738281 194.220001 734.702759 215.797516 756.705261 C 243.202499 785.596313 279.179993 784.689819 295.200012 787.703613 C 352.800018 793.277893 540 795 540 795 C 540 795 691.289978 794.773438 792.045044 787.431641 C 806.107544 785.732239 836.797485 785.596313 864.179932 756.705261 C 885.757446 734.702759 892.799988 684.738281 892.799988 684.738281 C 892.799988 684.738281 900 626.07251 900 567.384155 L 900 512.366577 C 900 453.700867 892.799988 395.012451 892.799988 395.012451 L 892.799988 395.012451 Z"/>
    </g>
</svg>
