<?xml version="1.0" encoding="UTF-8"?>
<!-- Generated by Pixelmator Pro 3.3.2 -->
<svg width="500" height="500" viewBox="0 0 500 500" xmlns="http://www.w3.org/2000/svg" xmlns:xlink="http://www.w3.org/1999/xlink">
    <path id="arrow-swap-horizontal-svgrepo-com" fill="#f2f2f2" stroke="#929292" stroke-width="4.333333" d="M 352.1185 6 L 147.12532 6 C 58.082958 6 5 59.056488 5 148.054474 L 5 352.700989 C 5 441.943512 58.082958 495 147.12532 495 L 351.873901 495 C 440.916168 495 493.999146 441.943512 493.999146 352.945496 L 493.999146 148.054474 C 494.243805 59.056488 441.160828 6 352.1185 6 Z"/>
    <g id="logo">
        <g id="Group-3">
            <path id="Line-copy" fill="none" stroke="#ff6900" stroke-width="57.512344" stroke-linecap="round" stroke-linejoin="round" d="M 362.434601 197.09201 L 362.068115 405.670105"/>
            <path id="Path-copy" fill="#f2f2f2" fill-rule="evenodd" stroke="none" d="M 347.097382 406.064148 C 347.0979 398.925537 352.140991 392.781342 359.142517 391.38913 C 366.144104 389.996918 373.154053 393.744415 375.885498 400.339844 C 378.616974 406.935242 376.309204 414.541595 370.373413 418.507324 C 364.437622 422.473053 356.527069 421.693451 351.479553 416.645447 C 348.673431 413.838959 347.097107 410.032898 347.097382 406.064148 Z"/>
        </g>
        <g id="Group-2">
            <path id="Line-copy-2" fill="none" stroke="#ff6900" stroke-width="57.512344" stroke-linecap="round" stroke-linejoin="round" d="M 250.477997 197.09201 L 251.245132 301.381042"/>
            <path id="Path-copy-2" fill="#f2f2f2" fill-rule="evenodd" stroke="#f2f2f2" stroke-width="0.766831" stroke-linecap="round" stroke-linejoin="round" d="M 235.906845 197.486084 C 235.907364 190.347382 240.95047 184.203247 247.951965 182.811005 C 254.953568 181.418823 261.963501 185.166321 264.694977 191.761719 C 267.426422 198.357147 265.118652 205.96347 259.182861 209.929199 C 253.247101 213.894958 245.336517 213.115326 240.289001 208.067322 C 237.48288 205.260834 235.906586 201.454803 235.906845 197.486084 Z"/>
            <path id="Path-copy-3" fill="#f2f2f2" fill-rule="evenodd" stroke="#f2f2f2" stroke-width="0.766831" stroke-linecap="round" stroke-linejoin="round" d="M 235.906845 301.775085 C 235.907364 294.636475 240.95047 288.492249 247.951965 287.100067 C 254.953568 285.707886 261.963501 289.455383 264.694977 296.050781 C 267.426422 302.64621 265.118652 310.252533 259.182861 314.218262 C 253.247101 318.184021 245.336517 317.404388 240.289001 312.356384 C 237.48288 309.549896 235.906586 305.743835 235.906845 301.775085 Z"/>
        </g>
        <g id="Group-1">
            <path id="Line" fill="none" stroke="#ff6900" stroke-width="57.512344" stroke-linecap="round" stroke-linejoin="round" d="M 138.889557 93.569794 L 138.521484 302.147888"/>
            <path id="Path" fill="#f2f2f2" fill-rule="evenodd" stroke="none" d="M 123.182663 93.963867 C 123.183167 86.825165 128.226273 80.68103 135.227783 79.288788 C 142.22937 77.896606 149.239304 81.644104 151.970764 88.239502 C 154.70224 94.83493 152.394455 102.441254 146.458679 106.406982 C 140.522903 110.372742 132.61232 109.593109 127.564796 104.545105 C 124.75869 101.738617 123.182381 97.932556 123.182663 93.963867 Z"/>
        </g>
    </g>
</svg>
